<svg width="41" height="42" viewBox="0 0 41 42" fill="none" xmlns="http://www.w3.org/2000/svg">
<rect y="0.799805" width="40.8" height="40.8" rx="5" fill="#EE7A7A"/>
<path d="M20.3992 8C13.1208 8 7.19922 13.9216 7.19922 21.2C7.19922 28.4784 13.1208 34.4 20.3992 34.4C27.6776 34.4 33.5992 28.4784 33.5992 21.2C33.5992 13.9216 27.6776 8 20.3992 8ZM20.3992 29.3231C18.9726 29.3231 17.8608 28.6726 17.8608 27.2923H22.9377C22.9186 28.6485 21.8138 29.3231 20.3992 29.3231ZM27.5069 26.2769H13.2915V24.5L15.0684 22.2154V20.1656C15.0684 17.6011 16.0724 15.3837 18.6223 14.8177L18.8761 13.0769H21.9223L22.1761 14.8177C24.7146 15.3837 25.73 17.61 25.73 20.1656V22.2154L27.5069 24.5V26.2769Z" fill="white"/>
</svg>
