<svg width="41" height="41" viewBox="0 0 41 41" fill="none" xmlns="http://www.w3.org/2000/svg">
<rect width="40.8" height="40.8" rx="5" fill="#EE7AAE"/>
<path d="M20.4008 7.77148C12.8879 7.77148 6.80078 13.4238 6.80078 20.4001C6.80078 27.3763 12.8879 33.0286 20.4008 33.0286C27.9137 33.0286 34.0008 27.3763 34.0008 20.4001C34.0008 13.4238 27.9137 7.77148 20.4008 7.77148ZM20.4008 12.66C23.0659 12.66 25.2266 14.6663 25.2266 17.1411C25.2266 19.6159 23.0659 21.6222 20.4008 21.6222C17.7356 21.6222 15.575 19.6159 15.575 17.1411C15.575 14.6663 17.7356 12.66 20.4008 12.66ZM20.4008 30.177C17.1817 30.177 14.2972 28.8225 12.3669 26.7042C13.3979 24.9015 15.4159 23.659 17.7685 23.659C17.9001 23.659 18.0317 23.6794 18.1579 23.7151C18.8708 23.9289 19.6166 24.0664 20.4008 24.0664C21.185 24.0664 21.9363 23.9289 22.6437 23.7151C22.7698 23.6794 22.9014 23.659 23.033 23.659C25.3856 23.659 27.4037 24.9015 28.4347 26.7042C26.5043 28.8225 23.6198 30.177 20.4008 30.177Z" fill="white"/>
</svg>
